PathFileType	4	(X/Y/Z)	 s02c0301.trc
DataRate	CameraRate	NumFrames	NumMarkers	Units	OrigDataRate	OrigDataStartFrame	OrigNumFrames
200	200	4	51	mm	200	1251	2000
Frame#	Time	racr			lacr			c7			jug			rlel			rdr			llel			ldr			s2			lic			ric			lasi			rasi			rpsi			lpsi			rgt			lgt			rth1			rth2			rth3			rth4			rlfc			rmfc			rsh1			rsh2			rsh3			rsh4			rlmal			rmmal			rcal			rtoe			rmt5			rmt1			lth1			lth2			lth4			lth3			llfc			lmfc			lsh1			lsh2			lsh3			lsh4			llmal			lmmal			lcal			ltoe			lmt5			SBIKE			LBIKE			RBIKE			
		X1	Y1	Z1	X2	Y2	Z2	X3	Y3	Z3	X4	Y4	Z4	X5	Y5	Z5	X6	Y6	Z6	X7	Y7	Z7	X8	Y8	Z8	X9	Y9	Z9	X10	Y10	Z10	X11	Y11	Z11	X12	Y12	Z12	X13	Y13	Z13	X14	Y14	Z14	X15	Y15	Z15	X16	Y16	Z16	X17	Y17	Z17	X18	Y18	Z18	X19	Y19	Z19	X20	Y20	Z20	X21	Y21	Z21	X22	Y22	Z22	X23	Y23	Z23	X24	Y24	Z24	X25	Y25	Z25	X26	Y26	Z26	X27	Y27	Z27	X28	Y28	Z28	X29	Y29	Z29	X30	Y30	Z30	X31	Y31	Z31	X32	Y32	Z32	X33	Y33	Z33	X34	Y34	Z34	X35	Y35	Z35	X36	Y36	Z36	X37	Y37	Z37	X38	Y38	Z38	X39	Y39	Z39	X40	Y40	Z40	X41	Y41	Z41	X42	Y42	Z42	X43	Y43	Z43	X44	Y44	Z44	X45	Y45	Z45	X46	Y46	Z46	X47	Y47	Z47	X48	Y48	Z48	X49	Y49	Z49	X50	Y50	Z50	X51	Y51	Z51	
1251	6.2550	683.411692	1206.139032	-35.759987	784.152875	1231.473386	-363.349950	740.158733	1257.510441	-196.034019	NaN	NaN	NaN	565.422346	969.209530	-18.166734	717.174292	854.629245	-101.070835	671.731459	1057.221037	-569.767645	736.192472	853.961966	-505.193066	222.378731	1209.589209	-362.184925	383.914070	1189.855186	-465.419661	297.878674	1193.586352	-193.932316	408.422406	1140.677592	-436.774838	348.666655	1154.576057	-207.167538	245.396141	1261.526800	-310.248374	280.803237	1275.857583	-391.168787	261.084578	1118.360070	-166.195490	317.583561	1103.751523	-519.774313	339.357302	1060.806925	-139.863093	413.050249	1014.421548	-128.111141	451.175819	945.431445	-94.972392	439.427326	1032.819278	-148.835553	531.242046	816.914756	-113.086317	549.755288	801.694708	-223.068618	497.372007	706.833413	-105.203660	480.968412	622.620099	-130.457544	426.579029	556.919540	-140.884257	502.980309	619.547727	-163.535853	367.571831	460.443890	-159.585106	387.465247	478.900684	-237.752782	299.408325	434.045582	-206.662917	572.119557	373.594005	-174.811786	455.968844	371.865715	-126.448562	496.543045	386.604629	-230.151004	392.860039	974.506993	-508.603306	437.681756	900.572395	-498.298450	466.267180	910.626479	-478.383607	440.392925	811.999410	-500.571443	453.995282	711.912904	-480.431644	432.818772	683.429242	-378.332587	389.378991	628.113716	-506.509965	344.216359	555.563796	-493.664431	267.100197	509.293759	-503.473078	355.563062	545.322608	-455.599252	175.281721	438.720225	-499.932124	185.561274	427.993779	-420.712006	100.671740	460.027328	-459.216346	230.946904	204.706066	-431.162855	161.081552	277.735662	-502.932545	-125.411611	873.969704	-306.259553	37.469248	87.599594	-514.031537	34.034063	83.349877	-113.937224	
1252	6.2600	685.986243	1204.371410	-37.098687	783.667388	1232.425560	-365.786213	741.629449	1257.372354	-197.775472	NaN	NaN	NaN	565.784597	969.039553	-16.904642	717.130339	854.627683	-100.829332	670.217901	1056.497841	-570.154057	735.877837	853.719952	-505.486888	222.008416	1209.658549	-360.708183	382.992985	1191.367110	-464.407814	298.806847	1191.925582	-192.205947	408.076578	1142.091938	-436.197515	349.562636	1152.844038	-206.200645	245.191387	1262.019890	-307.245517	280.485925	1276.433794	-390.069582	260.971037	1116.044434	-165.559535	318.297475	1105.829375	-520.078684	337.932924	1056.535243	-140.164352	411.455959	1009.214738	-128.286882	448.349135	939.028185	-96.149520	438.157551	1027.499440	-148.590847	526.766104	810.608428	-115.188645	545.220101	793.316352	-222.817017	494.087554	700.373689	-106.133676	479.112882	615.545761	-130.285896	425.706220	548.767522	-140.783924	501.831304	612.092411	-162.900696	369.653054	449.959045	-159.352508	389.452006	468.524896	-237.742561	300.069895	421.778921	-206.709579	574.354143	362.255985	-175.102564	458.235849	360.991624	-126.607569	498.787166	376.069710	-230.000239	395.351185	976.774656	-507.421795	441.423732	903.640298	-496.894230	469.660323	914.291766	-476.781475	445.637354	815.070259	-499.093609	460.249867	715.292542	-478.733762	438.946215	686.965318	-376.208301	394.913958	632.094791	-504.752672	348.164244	560.621467	-491.765781	270.103248	516.039254	-501.827608	358.792161	549.965053	-452.616220	176.491504	448.598039	-499.297262	185.909220	437.707356	-419.861412	102.120312	471.019715	-458.895294	228.052179	213.538785	-431.156261	159.661755	287.916661	-502.664144	-125.419094	873.897147	-306.512679	37.481087	87.392513	-514.117172	33.553997	83.962610	-113.924040	
1253	6.2650	688.697986	1202.572061	-38.583178	783.050908	1233.397250	-368.528084	743.162964	1257.083125	-199.918583	NaN	NaN	NaN	566.527326	968.835337	-15.294952	717.104887	854.606405	-100.584217	668.620290	1055.614776	-570.629996	735.287111	853.433708	-505.533106	221.809182	1209.415249	-358.611323	381.934008	1192.628490	-463.393839	299.801632	1189.932863	-190.342765	407.548931	1143.280975	-435.522591	350.632568	1151.059037	-205.102654	244.747551	1261.803623	-304.464122	280.072019	1276.720453	-387.986717	261.010766	1113.244492	-164.860274	318.662570	1107.716565	-520.160405	337.197205	1052.268013	-139.983106	409.801346	1003.609493	-128.770805	445.818350	932.373762	-97.631857	437.052895	1022.041309	-148.380709	522.759655	804.141444	-117.466091	541.034768	786.925225	-225.535676	491.400599	693.841663	-107.802942	478.052781	608.367172	-130.809405	425.702510	540.857795	-140.633933	500.555722	605.153030	-163.577712	371.731592	439.515801	-158.798899	392.033885	458.677481	-237.826019	300.468131	409.869443	-206.706607	576.039632	350.394882	-175.335093	460.056743	349.818485	-126.584292	500.901043	365.963336	-228.436494	397.617664	978.887075	-506.241459	444.830717	906.555191	-495.472194	472.800676	917.668286	-475.248159	450.689979	818.023885	-497.823215	466.569137	718.544147	-476.949717	445.125942	690.460210	-374.102393	400.579941	636.222332	-502.833102	351.994889	565.507866	-489.728543	273.284368	522.870074	-500.243473	362.438184	555.172895	-450.659425	177.846828	458.686934	-498.622977	186.560158	447.575269	-418.949737	103.685185	482.058776	-458.730631	226.088497	222.996334	-431.226746	158.824316	298.265357	-502.566167	-125.466854	873.799288	-306.735474	37.353046	86.908962	-514.316410	33.555383	83.914623	-113.952396	
1254	6.2700	691.597054	1200.585492	-40.337366	782.424170	1234.413877	-371.457816	744.713891	1256.867363	-202.730189	NaN	NaN	NaN	567.616981	968.497610	-13.382732	717.170577	854.009980	-100.840848	666.950753	1054.648252	-571.147004	734.362961	853.098223	-505.248049	221.693434	1208.618230	-356.156139	380.676115	1193.522474	-462.222299	300.722830	1187.596952	-189.583771	406.920171	1144.103000	-434.974166	351.890414	1149.174516	-203.919505	244.185894	1261.096076	-300.981819	278.505810	1277.066189	-383.075684	261.149139	1110.150063	-164.604273	318.671244	1109.374833	-520.087222	336.663600	1047.930550	-139.766264	408.696103	998.212951	-129.075882	443.518999	925.862962	-99.008711	435.973624	1016.888220	-148.100434	519.465137	797.222279	-119.838609	536.599858	780.604836	-228.172091	489.401172	686.896000	-109.686477	477.362414	600.653559	-132.418539	426.257224	532.554576	-140.455672	499.214930	598.308704	-165.732478	373.310017	429.289375	-157.961566	392.235329	447.852920	-236.135201	300.600280	398.384954	-206.657118	577.260662	338.069265	-175.845451	461.390327	338.455205	-126.589012	502.047790	354.059022	-229.395740	399.600014	980.770883	-505.099370	448.056419	909.383589	-494.084729	475.717844	920.855935	-473.662110	455.625950	820.983932	-496.634965	473.264022	721.780345	-474.891284	451.443996	693.957925	-371.900879	406.323035	640.437897	-500.860037	355.965579	570.987840	-487.851459	276.469963	529.985944	-498.868040	366.148643	559.848656	-448.595031	179.443829	469.103884	-497.863499	187.553759	457.560237	-417.992282	105.242503	493.161801	-457.998484	224.791269	232.668700	-431.078505	158.472828	309.026477	-502.405913	-125.521999	873.725169	-306.955291	37.490003	87.154458	-514.187277	34.036982	83.278063	-114.015020	
